<mxfile host="app.diagrams.net" modified="2020-12-11T00:02:16.182Z" agent="5.0 (Windows NT 10.0; Win64; x64) AppleWebKit/537.36 (KHTML, like Gecko) Chrome/86.0.4240.198 Safari/537.36" etag="y0TuQEUyq2YocnYMpmc3" version="14.0.0" type="github" pages="2">
  <diagram name="Atividades-Geral" id="e7e014a7-5840-1c2e-5031-d8a46d1fe8dd">
    <mxGraphModel dx="1011" dy="449" grid="1" gridSize="10" guides="1" tooltips="1" connect="1" arrows="1" fold="1" page="1" pageScale="1" pageWidth="1169" pageHeight="826" background="#ffffff" math="0" shadow="0">
      <root>
        <mxCell id="0" />
        <mxCell id="1" parent="0" />
        <mxCell id="2" value="Cadastro de Combinações" style="swimlane;whiteSpace=wrap" parent="1" vertex="1">
          <mxGeometry x="164.5" y="128" width="280" height="570" as="geometry">
            <mxRectangle x="164.5" y="128" width="80" height="23" as="alternateBounds" />
          </mxGeometry>
        </mxCell>
        <mxCell id="5" value="" style="ellipse;shape=startState;fillColor=#000000;strokeColor=#ff0000;" parent="2" vertex="1">
          <mxGeometry x="100" y="40" width="30" height="30" as="geometry" />
        </mxCell>
        <mxCell id="6" value="" style="edgeStyle=elbowEdgeStyle;elbow=horizontal;verticalAlign=bottom;endArrow=open;endSize=8;strokeColor=#FF0000;endFill=1;rounded=0" parent="2" source="5" target="7" edge="1">
          <mxGeometry x="100" y="40" as="geometry">
            <mxPoint x="115" y="110" as="targetPoint" />
          </mxGeometry>
        </mxCell>
        <mxCell id="7" value="Administrador &#xa;adiciona peças" style="" parent="2" vertex="1">
          <mxGeometry x="60" y="110" width="110" height="50" as="geometry" />
        </mxCell>
        <mxCell id="8" value="Administrador &#xa;adiciona jogos" style="" parent="2" vertex="1">
          <mxGeometry x="60" y="220" width="110" height="50" as="geometry" />
        </mxCell>
        <mxCell id="9" value="" style="endArrow=open;strokeColor=#FF0000;endFill=1;rounded=0" parent="2" source="7" target="8" edge="1">
          <mxGeometry relative="1" as="geometry" />
        </mxCell>
        <mxCell id="10" value="Administrador&#xa;adiciona média&#xa;de FPS" style="" parent="2" vertex="1">
          <mxGeometry x="60" y="325" width="110" height="50" as="geometry" />
        </mxCell>
        <mxCell id="11" value="" style="endArrow=open;strokeColor=#FF0000;endFill=1;rounded=0" parent="2" source="8" target="10" edge="1">
          <mxGeometry relative="1" as="geometry" />
        </mxCell>
        <mxCell id="12" value="" style="edgeStyle=elbowEdgeStyle;elbow=horizontal;strokeColor=#FF0000;endArrow=open;endFill=1;rounded=0" parent="2" source="10" target="7" edge="1">
          <mxGeometry width="100" height="100" relative="1" as="geometry">
            <mxPoint x="160" y="290" as="sourcePoint" />
            <mxPoint x="260" y="190" as="targetPoint" />
            <Array as="points">
              <mxPoint x="30" y="250" />
            </Array>
          </mxGeometry>
        </mxCell>
        <mxCell id="3" value="Visualização de Combinações" style="swimlane;whiteSpace=wrap" parent="1" vertex="1">
          <mxGeometry x="444.5" y="128" width="280" height="570" as="geometry" />
        </mxCell>
        <mxCell id="13" value="" style="ellipse;shape=startState;fillColor=#000000;strokeColor=#ff0000;" parent="3" vertex="1">
          <mxGeometry x="60" y="40" width="30" height="30" as="geometry" />
        </mxCell>
        <mxCell id="14" value="" style="edgeStyle=elbowEdgeStyle;elbow=horizontal;verticalAlign=bottom;endArrow=open;endSize=8;strokeColor=#FF0000;endFill=1;rounded=0" parent="3" source="13" target="15" edge="1">
          <mxGeometry x="40" y="20" as="geometry">
            <mxPoint x="55" y="90" as="targetPoint" />
          </mxGeometry>
        </mxCell>
        <mxCell id="15" value="Usuário insere &#xa;configurações&#xa;do PC" style="" parent="3" vertex="1">
          <mxGeometry x="20" y="110" width="110" height="50" as="geometry" />
        </mxCell>
        <mxCell id="17" value="" style="endArrow=open;strokeColor=#FF0000;endFill=1;rounded=0" parent="3" source="15" edge="1">
          <mxGeometry relative="1" as="geometry">
            <mxPoint x="75.5" y="322" as="targetPoint" />
          </mxGeometry>
        </mxCell>
        <mxCell id="QKzMZwhV0HfaG1VeuUF9-41" style="edgeStyle=orthogonalEdgeStyle;rounded=0;orthogonalLoop=1;jettySize=auto;html=1;exitX=1;exitY=0.5;exitDx=0;exitDy=0;entryX=0;entryY=0.5;entryDx=0;entryDy=0;" edge="1" parent="3" source="18" target="38">
          <mxGeometry relative="1" as="geometry" />
        </mxCell>
        <mxCell id="18" value="Visualização da&#xa;média de FPS" style="" parent="3" vertex="1">
          <mxGeometry x="35.5" y="325" width="110" height="50" as="geometry" />
        </mxCell>
        <mxCell id="38" value="" style="ellipse;shape=endState;fillColor=#000000;strokeColor=#ff0000" parent="3" vertex="1">
          <mxGeometry x="195.5" y="335" width="30" height="30" as="geometry" />
        </mxCell>
        <mxCell id="20" value="" style="endArrow=open;strokeColor=#FF0000;endFill=1;rounded=0" parent="1" source="10" target="18" edge="1">
          <mxGeometry relative="1" as="geometry" />
        </mxCell>
      </root>
    </mxGraphModel>
  </diagram>
  <diagram id="wvtztsuTY2dAfISpp6N1" name="Use_Case_Cadastro">
    <mxGraphModel dx="1011" dy="1299" grid="1" gridSize="10" guides="1" tooltips="1" connect="1" arrows="1" fold="1" page="1" pageScale="1" pageWidth="1100" pageHeight="850" math="0" shadow="0">
      <root>
        <mxCell id="JNIke9-MqiFzacuJxaBL-0" />
        <mxCell id="JNIke9-MqiFzacuJxaBL-1" parent="JNIke9-MqiFzacuJxaBL-0" />
        <mxCell id="JNIke9-MqiFzacuJxaBL-11" value="" style="edgeStyle=orthogonalEdgeStyle;rounded=0;orthogonalLoop=1;jettySize=auto;html=1;" edge="1" parent="JNIke9-MqiFzacuJxaBL-1" source="JNIke9-MqiFzacuJxaBL-2" target="JNIke9-MqiFzacuJxaBL-10">
          <mxGeometry relative="1" as="geometry" />
        </mxCell>
        <mxCell id="RFzE1XFbZOoPWLKnHbMN-3" value="" style="edgeStyle=orthogonalEdgeStyle;rounded=0;orthogonalLoop=1;jettySize=auto;html=1;" edge="1" parent="JNIke9-MqiFzacuJxaBL-1" source="JNIke9-MqiFzacuJxaBL-2" target="RFzE1XFbZOoPWLKnHbMN-2">
          <mxGeometry relative="1" as="geometry" />
        </mxCell>
        <mxCell id="RFzE1XFbZOoPWLKnHbMN-5" value="" style="edgeStyle=orthogonalEdgeStyle;rounded=0;orthogonalLoop=1;jettySize=auto;html=1;" edge="1" parent="JNIke9-MqiFzacuJxaBL-1" source="JNIke9-MqiFzacuJxaBL-2" target="RFzE1XFbZOoPWLKnHbMN-4">
          <mxGeometry relative="1" as="geometry" />
        </mxCell>
        <mxCell id="RFzE1XFbZOoPWLKnHbMN-7" value="" style="edgeStyle=orthogonalEdgeStyle;rounded=0;orthogonalLoop=1;jettySize=auto;html=1;" edge="1" parent="JNIke9-MqiFzacuJxaBL-1" source="JNIke9-MqiFzacuJxaBL-2" target="RFzE1XFbZOoPWLKnHbMN-6">
          <mxGeometry relative="1" as="geometry" />
        </mxCell>
        <mxCell id="JNIke9-MqiFzacuJxaBL-2" value="Actor" style="shape=umlActor;verticalLabelPosition=bottom;verticalAlign=top;html=1;direction=east;shadow=0;" vertex="1" parent="JNIke9-MqiFzacuJxaBL-1">
          <mxGeometry x="190" y="80" width="40" height="80" as="geometry" />
        </mxCell>
        <mxCell id="JNIke9-MqiFzacuJxaBL-10" value="Cadastrar&lt;br&gt;Combinações" style="ellipse;whiteSpace=wrap;html=1;verticalAlign=top;" vertex="1" parent="JNIke9-MqiFzacuJxaBL-1">
          <mxGeometry x="450" y="20" width="120" height="80" as="geometry" />
        </mxCell>
        <mxCell id="RFzE1XFbZOoPWLKnHbMN-2" value="Atualizar&lt;br&gt;Combinações" style="ellipse;whiteSpace=wrap;html=1;shadow=0;verticalAlign=top;" vertex="1" parent="JNIke9-MqiFzacuJxaBL-1">
          <mxGeometry x="450" y="140" width="120" height="80" as="geometry" />
        </mxCell>
        <mxCell id="RFzE1XFbZOoPWLKnHbMN-4" value="Remover&lt;br&gt;Comvinações" style="ellipse;whiteSpace=wrap;html=1;shadow=0;verticalAlign=top;" vertex="1" parent="JNIke9-MqiFzacuJxaBL-1">
          <mxGeometry x="280" y="260" width="120" height="80" as="geometry" />
        </mxCell>
        <mxCell id="RFzE1XFbZOoPWLKnHbMN-6" value="Visualizar&lt;br&gt;Combinações" style="ellipse;whiteSpace=wrap;html=1;shadow=0;verticalAlign=top;" vertex="1" parent="JNIke9-MqiFzacuJxaBL-1">
          <mxGeometry x="280" y="-110" width="120" height="80" as="geometry" />
        </mxCell>
      </root>
    </mxGraphModel>
  </diagram>
</mxfile>
